[Header]
FileType HTR
DataType HTRS
FileVersion 1
NumSegments 64
NumFrames 3
DataFrameRate 24
EulerRotationOrder ZYX
CalibrationUnits mm
RotationUnits Degrees
GlobalAxisofGravity Y
BoneLengthAxis Y
ScaleFactor 1.0
[SegmentNames&Hierarchy]
Hips	GLOBAL
Spine	Hips
Spine1	Spine
Spine2	Spine1
Neck	Spine2
Head	Neck
LeftEye	Head
RightEye	Head
LeftShoulder	Spine2
LeftArm	LeftShoulder
LeftForeArm	LeftArm
LeftHand	LeftForeArm
LeftHandThumb1	LeftHand
LeftHandThumb2	LeftHandThumb1
LeftHandThumb3	LeftHandThumb2
LeftHandThumb4	LeftHandThumb3
LeftHandIndex1	LeftHand
LeftHandIndex2	LeftHandIndex1
LeftHandIndex3	LeftHandIndex2
LeftHandIndex4	LeftHandIndex3
LeftHandMiddle1	LeftHand
LeftHandMiddle2	LeftHandMiddle1
LeftHandMiddle3	LeftHandMiddle2
LeftHandMiddle4	LeftHandMiddle3
LeftHandRing1	LeftHand
LeftHandRing2	LeftHandRing1
LeftHandRing3	LeftHandRing2
LeftHandRing4	LeftHandRing3
LeftHandPinky1	LeftHand
LeftHandPinky2	LeftHandPinky1
LeftHandPinky3	LeftHandPinky2
LeftHandPinky4	LeftHandPinky3
RightShoulder	Spine2
RightArm	RightShoulder
RightForeArm	RightArm
RightHand	RightForeArm
RightHandPinky1	RightHand
RightHandPinky2	RightHandPinky1
RightHandPinky3	RightHandPinky2
RightHandPinky4	RightHandPinky3
RightHandRing1	RightHand
RightHandRing2	RightHandRing1
RightHandRing3	RightHandRing2
RightHandRing4	RightHandRing3
RightHandMiddle1	RightHand
RightHandMiddle2	RightHandMiddle1
RightHandMiddle3	RightHandMiddle2
RightHandMiddle4	RightHandMiddle3
RightHandIndex1	RightHand
RightHandIndex2	RightHandIndex1
RightHandIndex3	RightHandIndex2
RightHandIndex4	RightHandIndex3
RightHandThumb1	RightHand
RightHandThumb2	RightHandThumb1
RightHandThumb3	RightHandThumb2
RightHandThumb4	RightHandThumb3
LeftUpLeg	Hips
LeftLeg	LeftUpLeg
LeftFoot	LeftLeg
LeftToeBase	LeftFoot
RightUpLeg	Hips
RightLeg	RightUpLeg
RightFoot	RightLeg
RightToeBase	RightFoot
[BasePosition]
Hips	0	0	0	0	0	0	1
Spine	0	0	0	0	0	0	1
Spine1	0	0	0	0	0	0	1
Spine2	0	0	0	0	0	0	1
Neck	0	0	0	0	0	0	1
Head	0	0	0	0	0	0	1
LeftEye	0	0	0	0	0	0	1
RightEye	0	0	0	0	0	0	1
LeftShoulder	0	0	0	0	0	0	1
LeftArm	0	0	0	0	0	0	1
LeftForeArm	0	0	0	0	0	0	1
LeftHand	0	0	0	0	0	0	1
LeftHandThumb1	0	0	0	0	0	0	1
LeftHandThumb2	0	0	0	0	0	0	1
LeftHandThumb3	0	0	0	0	0	0	1
LeftHandThumb4	0	0	0	0	0	0	1
LeftHandIndex1	0	0	0	0	0	0	1
LeftHandIndex2	0	0	0	0	0	0	1
LeftHandIndex3	0	0	0	0	0	0	1
LeftHandIndex4	0	0	0	0	0	0	1
LeftHandMiddle1	0	0	0	0	0	0	1
LeftHandMiddle2	0	0	0	0	0	0	1
LeftHandMiddle3	0	0	0	0	0	0	1
LeftHandMiddle4	0	0	0	0	0	0	1
LeftHandRing1	0	0	0	0	0	0	1
LeftHandRing2	0	0	0	0	0	0	1
LeftHandRing3	0	0	0	0	0	0	1
LeftHandRing4	0	0	0	0	0	0	1
LeftHandPinky1	0	0	0	0	0	0	1
LeftHandPinky2	0	0	0	0	0	0	1
LeftHandPinky3	0	0	0	0	0	0	1
LeftHandPinky4	0	0	0	0	0	0	1
RightShoulder	0	0	0	0	0	0	1
RightArm	0	0	0	0	0	0	1
RightForeArm	0	0	0	0	0	0	1
RightHand	0	0	0	0	0	0	1
RightHandPinky1	0	0	0	0	0	0	1
RightHandPinky2	0	0	0	0	0	0	1
RightHandPinky3	0	0	0	0	0	0	1
RightHandPinky4	0	0	0	0	0	0	1
RightHandRing1	0	0	0	0	0	0	1
RightHandRing2	0	0	0	0	0	0	1
RightHandRing3	0	0	0	0	0	0	1
RightHandRing4	0	0	0	0	0	0	1
RightHandMiddle1	0	0	0	0	0	0	1
RightHandMiddle2	0	0	0	0	0	0	1
RightHandMiddle3	0	0	0	0	0	0	1
RightHandMiddle4	0	0	0	0	0	0	1
RightHandIndex1	0	0	0	0	0	0	1
RightHandIndex2	0	0	0	0	0	0	1
RightHandIndex3	0	0	0	0	0	0	1
RightHandIndex4	0	0	0	0	0	0	1
RightHandThumb1	0	0	0	0	0	0	1
RightHandThumb2	0	0	0	0	0	0	1
RightHandThumb3	0	0	0	0	0	0	1
RightHandThumb4	0	0	0	0	0	0	1
LeftUpLeg	0	0	0	0	0	0	1
LeftLeg	0	0	0	0	0	0	1
LeftFoot	0	0	0	0	0	0	1
LeftToeBase	0	0	0	0	0	0	1
RightUpLeg	0	0	0	0	0	0	1
RightLeg	0	0	0	0	0	0	1
RightFoot	0	0	0	0	0	0	1
RightToeBase	0	0	0	0	0	0	1
[Hips]
12	52.12573624	983.904541	793.5168457	-0.5480490923	1.134360552	-0.01585006714	1.0
13	49.52172089	998.9962158	857.5963135	-0.7452324629	2.129559517	0.5686009526	1.0
14	46.13368988	1006.078125	924.9230957	-0.4709190428	3.102528334	1.029007554	1.0
[Spine]
12	0	101.8159943	1.315000057	4.863081932	-1.334028721	-0.8404169679	1.0
13	0	101.8159943	1.315000057	5.064545631	-2.910357714	-1.336320281	1.0
14	0	101.8159943	1.315000057	5.149950981	-4.181844234	-1.904806018	1.0
[Spine1]
12	0	100.8349991	-10.00800037	1.82006526	-0.6371611357	-0.2981419265	1.0
13	0	100.8349991	-10.00800037	1.961028099	-2.013360739	-0.003527245019	1.0
14	0	100.8349991	-10.00800037	2.024080515	-3.270348549	0.5554639697	1.0
[Spine2]
12	0	91	-13.73399925	1.811063409	-0.5931328535	-0.2579284906	1.0
13	0	91	-13.73399925	1.959740639	-1.972552061	0.06739389896	1.0
14	0	91	-13.73399925	1.995416641	-3.226708651	0.6595181823	1.0
[Neck]
12	0	166.7169952	-25.16200066	0.07719574869	1.513899803	-2.403561115	1.0
13	0	166.7169952	-25.16200066	0.237513423	2.139919281	-1.771303415	1.0
14	0	166.7169952	-25.16200066	0.3144212961	2.778663874	-1.49332726	1.0
[Head]
12	0	96.17900085	16.84999847	-3.59568119	3.1602633	-0.4922206402	1.0
13	0	96.17900085	16.84999847	-2.878902674	5.241651535	-1.61825633	1.0
14	0	96.17900085	16.84999847	-2.550189018	6.893516541	-2.109610081	1.0
[LeftEye]
12	30.6760006	64.09500122	92.83599854	0	0	0	1.0
13	30.6760006	64.09500122	92.83599854	0	0	0	1.0
14	30.6760006	64.09500122	92.83599854	0	0	0	1.0
[RightEye]
12	-30.6760006	64.09500122	92.83499908	0	0	0	1.0
13	-30.6760006	64.09500122	92.83499908	0	0	0	1.0
14	-30.6760006	64.09500122	92.83499908	0	0	0	1.0
[LeftShoulder]
12	45.70400238	109.4599991	-26.28000069	2.523584843	-7.559759617	-16.06661415	1.0
13	45.70400238	109.4599991	-26.28000069	2.63400197	-8.146518707	-15.84844398	1.0
14	45.70400238	109.4599991	-26.28000069	2.671454906	-8.531289101	-15.41459656	1.0
[LeftArm]
12	105.923996	-5.24600029	-22.32099915	16.66455841	-4.797719479	-56.7673912	1.0
13	105.923996	-5.24600029	-22.32099915	16.85082436	-9.120010376	-55.94369888	1.0
14	105.923996	-5.24600029	-22.32099915	18.39017105	-12.71250629	-54.42459106	1.0
[LeftForeArm]
12	278.414978	-0.0009999999311	0	2.322280125e-06	-16.73804855	-0.0002111200301	1.0
13	278.414978	-0.0009999999311	0	6.624990874e-06	-21.85587311	-0.000212419458	1.0
14	278.414978	-0.0009999999311	0	8.530702871e-06	-29.17669296	-0.0002069208567	1.0
[LeftHand]
12	283.2879944	0	0	3.727029324	5.687824249	-12.18916893	1.0
13	283.2879944	0	0	4.494905472	5.801667213	-10.46461105	1.0
14	283.2879944	0	0	4.449804306	5.370972633	-8.852967262	1.0
[LeftHandThumb1]
12	24.6609993	-15.75	26.8239994	5.839803696	2.504242897	11.148386	1.0
13	24.6609993	-15.75	26.8239994	5.839803696	2.504242897	11.148386	1.0
14	24.6609993	-15.75	26.8239994	5.839803696	2.504242897	11.148386	1.0
[LeftHandThumb2]
12	32.29800034	-18.64699936	18.64699936	7.95521307	13.75231647	7.367526531	1.0
13	32.29800034	-18.64699936	18.64699936	6.612397194	12.10290051	6.518337727	1.0
14	32.29800034	-18.64699936	18.64699936	5.349119663	11.27850533	6.278647423	1.0
[LeftHandThumb3]
12	26.52600098	-15.31499958	15.31499958	-1.281531811	-8.612301826	21.92472839	1.0
13	26.52600098	-15.31499958	15.31499958	-0.7254298925	-7.357037544	21.416008	1.0
14	26.52600098	-15.31499958	15.31499958	-0.4205150306	-6.657982826	21.21435165	1.0
[LeftHandThumb4]
12	19.54599953	-11.28499985	11.28499985	0	0	0	1.0
13	19.54599953	-11.28499985	11.28499985	0	0	0	1.0
14	19.54599953	-11.28499985	11.28499985	0	0	0	1.0
[LeftHandIndex1]
12	91.09299469	-5.170999527	22.60099792	-0.7137887478	-1.123210907	-21.39494705	1.0
13	91.09299469	-5.170999527	22.60099792	-0.8244495988	-1.740450978	-21.69072342	1.0
14	91.09299469	-5.170999527	22.60099792	-0.865645647	-2.16759944	-21.49913979	1.0
[LeftHandIndex2]
12	36.76399994	0	0	-0.1990509331	1.512200713	-14.99655151	1.0
13	36.76399994	0	0	-0.1997763216	1.514906883	-15.02396488	1.0
14	36.76399994	0	0	-0.2000048012	1.515775561	-15.03278351	1.0
[LeftHandIndex3]
12	28.83100128	0	0	-0.1990440786	1.512193322	-14.99655628	1.0
13	28.83100128	0	0	-0.1997664571	1.51489222	-15.02398968	1.0
14	28.83100128	0	0	-0.2000047415	1.515761137	-15.03280067	1.0
[LeftHandIndex4]
12	23.92700005	0	0	0	0	0	1.0
13	23.92700005	0	0	0	0	0	1.0
14	23.92700005	0	0	0	0	0	1.0
[LeftHandMiddle1]
12	95.33399963	0	0	-1.86996603	4.713721275	-29.60106087	1.0
13	95.33399963	0	0	-1.880764008	4.574334621	-29.72615051	1.0
14	95.33399963	0	0	-1.862410069	4.364129066	-29.51538658	1.0
[LeftHandMiddle2]
12	36.98199844	0	0	-0.1244536191	1.199690342	-11.84516907	1.0
13	36.98199844	0	0	-0.1246462241	1.200602293	-11.85430336	1.0
14	36.98199844	0	0	-0.1246317327	1.200507045	-11.85338402	1.0
[LeftHandMiddle3]
12	29.50900078	0	0	-0.1695831865	1.397595763	-13.83584595	1.0
13	29.50900078	0	0	-0.1698061228	1.398498654	-13.844944	1.0
14	29.50900078	0	0	-0.1697806716	1.398398161	-13.8439455	1.0
[LeftHandMiddle4]
12	28.3390007	0	0	0	0	0	1.0
13	28.3390007	0	0	0	0	0	1.0
14	28.3390007	0	0	0	0	0	1.0
[LeftHandRing1]
12	91.04499817	-0.4390000105	-18.65100098	-1.99186492	7.138940334	-31.01555252	1.0
13	91.04499817	-0.4390000105	-18.65100098	-2.082046747	7.07913065	-32.03644562	1.0
14	91.04499817	-0.4390000105	-18.65100098	-2.06357336	6.953890324	-31.82660675	1.0
[LeftHandRing2]
12	31.54000092	0	0	-0.3260822296	1.924591899	-19.23077393	1.0
13	31.54000092	0	0	-0.3282554746	1.930842042	-19.29563522	1.0
14	31.54000092	0	0	-0.3303711712	1.936865926	-19.35831642	1.0
[LeftHandRing3]
12	29.37700081	0	0	-0.3961558342	2.114669085	-21.21897888	1.0
13	29.37700081	0	0	-0.3985641301	2.120863199	-21.2843399	1.0
14	29.37700081	0	0	-0.4009031653	2.126852989	-21.34740639	1.0
[LeftHandRing4]
12	26.47500038	0	0	0	0	0	1.0
13	26.47500038	0	0	0	0	0	1.0
14	26.47500038	0	0	0	0	0	1.0
[LeftHandPinky1]
12	80.77799988	-4.887000084	-38.06099701	-2.429431438	5.543658733	-35.46477509	1.0
13	80.77799988	-4.887000084	-38.06099701	-2.466377735	6.00065279	-35.59988403	1.0
14	80.77799988	-4.887000084	-38.06099701	-2.431047916	5.935593128	-35.29848099	1.0
[LeftHandPinky2]
12	36	0	0	-0.2686067224	1.751179934	-17.43829727	1.0
13	36	0	0	-0.2731350362	1.765588522	-17.58640289	1.0
14	36	0	0	-0.2746795416	1.770468354	-17.63658714	1.0
[LeftHandPinky3]
12	21.14200211	0	0	-0.2686028183	1.75117445	-17.43818855	1.0
13	21.14200211	0	0	-0.2731302083	1.765594006	-17.58639908	1.0
14	21.14200211	0	0	-0.2746705413	1.770472527	-17.63661957	1.0
[LeftHandPinky4]
12	19.75699997	0	0	0	0	0	1.0
13	19.75699997	0	0	0	0	0	1.0
14	19.75699997	0	0	0	0	0	1.0
[RightShoulder]
12	-45.70000076	109.4620056	-26.28000069	1.997051954	5.994138718	14.12144184	1.0
13	-45.70000076	109.4620056	-26.28000069	1.946916342	5.609722614	14.48316479	1.0
14	-45.70000076	109.4620056	-26.28000069	1.855422139	5.150717735	14.57519817	1.0
[RightArm]
12	-105.9280014	-5.248000145	-22.32099915	24.48526573	9.458757401	55.38967514	1.0
13	-105.9280014	-5.248000145	-22.32099915	22.12322426	6.377017021	56.75962067	1.0
14	-105.9280014	-5.248000145	-22.32099915	20.89359856	2.741674185	57.44986725	1.0
[RightForeArm]
12	-278.414978	0	0	2.101419341e-07	13.18227386	-1.094903746e-05	1.0
13	-278.414978	0	0	-5.671495273e-06	10.70809078	-1.528869871e-05	1.0
14	-278.414978	0	0	-6.297028904e-06	10.11740875	-1.250357946e-05	1.0
[RightHand]
12	-283.2879944	0	0.0009999999311	9.385123253	12.82788467	2.959950447	1.0
13	-283.2879944	0	0.0009999999311	9.798085213	11.30502987	4.805352688	1.0
14	-283.2879944	0	0.0009999999311	9.235274315	9.369809151	7.968133926	1.0
[RightHandPinky1]
12	-80.76699829	-4.885000229	-38.06000137	-1.586358786	-4.15316391	27.42035294	1.0
13	-80.76699829	-4.885000229	-38.06000137	-1.502973795	-4.718438148	27.07965851	1.0
14	-80.76699829	-4.885000229	-38.06000137	-1.490538597	-4.73062849	27.05685806	1.0
[RightHandPinky2]
12	-36	0	0.0009999999311	-0.5668195486	-2.221801043	28.64046478	1.0
13	-36	0	0.0009999999311	-0.5663965344	-2.221017122	28.62934113	1.0
14	-36	0	0.0009999999311	-0.5646421313	-2.217792988	28.58397102	1.0
[RightHandPinky3]
12	-21.14200211	0	0	-0.1782062352	-1.273545027	15.93098354	1.0
13	-21.14200211	0	0	-0.178154856	-1.273355842	15.92860889	1.0
14	-21.14200211	0	0	-0.1771597862	-1.269854903	15.88360882	1.0
[RightHandPinky4]
12	-19.75699997	0	0	0	0	0	1.0
13	-19.75699997	0	0	0	0	0	1.0
14	-19.75699997	0	0	0	0	0	1.0
[RightHandRing1]
12	-91.03599548	-0.4390000105	-18.65100098	-1.174799681	-2.871598244	22.41129684	1.0
13	-91.03599548	-0.4390000105	-18.65100098	-1.124993682	-2.963588476	21.67709351	1.0
14	-91.03599548	-0.4390000105	-18.65100098	-1.128282309	-2.916082144	21.72778511	1.0
[RightHandRing2]
12	-31.54000092	0	0	-1.506952405	-3.420035601	47.54878616	1.0
13	-31.54000092	0	0	-1.509593129	-3.422442913	47.59309769	1.0
14	-31.54000092	0	0	-1.508452058	-3.421401501	47.57397842	1.0
[RightHandRing3]
12	-29.37700081	0	0	-0.3770883679	-1.831984997	23.26022339	1.0
13	-29.37700081	0	0	-0.3785071969	-1.835291386	23.30464935	1.0
14	-29.37700081	0	0	-0.3778948486	-1.8338691	23.2854805	1.0
[RightHandRing4]
12	-26.47500038	0	0	0	0	0	1.0
13	-26.47500038	0	0	0	0	0	1.0
14	-26.47500038	0	0	0	0	0	1.0
[RightHandMiddle1]
12	-95.32500458	0	0	-0.9618905783	-0.3114379644	19.28962708	1.0
13	-95.32500458	0	0	-0.9384971261	-0.1583632678	18.93581009	1.0
14	-95.32500458	0	0	-0.9422508478	-0.1152325496	18.99703979	1.0
[RightHandMiddle2]
12	-36.98199844	0	0	-0.8479683399	-2.672910929	35.19747543	1.0
13	-36.98199844	0	0	-0.8455265164	-2.669460773	35.14510345	1.0
14	-36.98199844	0	0	-0.8455780745	-2.669531822	35.14622116	1.0
[RightHandMiddle3]
12	-29.50900078	0	0	-0.2912350595	-1.619837523	20.40872574	1.0
13	-29.50900078	0	0	-0.2897539735	-1.615853906	20.3561573	1.0
14	-29.50900078	0	0	-0.2897830606	-1.615932107	20.35717392	1.0
[RightHandMiddle4]
12	-28.3390007	0	0.0009999999311	0	0	0	1.0
13	-28.3390007	0	0.0009999999311	0	0	0	1.0
14	-28.3390007	0	0.0009999999311	0	0	0	1.0
[RightHandIndex1]
12	-91.08300018	-5.167999744	22.60099792	-0.6210803986	4.210521698	17.80263519	1.0
13	-91.08300018	-5.167999744	22.60099792	-0.5121065974	4.226586819	16.46205139	1.0
14	-91.08300018	-5.167999744	22.60099792	-0.5035202503	4.190611839	16.49847984	1.0
[RightHandIndex2]
12	-36.76399994	0	0	-0.3936987817	-1.870123029	23.77427673	1.0
13	-36.76399994	0	0	-0.3960575461	-1.875477076	23.84651184	1.0
14	-36.76399994	0	0	-0.396797359	-1.877158523	23.86920166	1.0
[RightHandIndex3]
12	-28.83100128	0	0	-0.07787576318	-0.8465157747	10.51119137	1.0
13	-28.83100128	0	0	-0.07894511521	-0.8522577882	10.58338547	1.0
14	-28.83100128	0	0	-0.07927898318	-0.8540619612	10.60605812	1.0
[RightHandIndex4]
12	-23.92700005	0	0	0	0	0	1.0
13	-23.92700005	0	0	0	0	0	1.0
14	-23.92700005	0	0	0	0	0	1.0
[RightHandThumb1]
12	-24.64799881	-15.72700024	26.82600021	12.78110313	-2.167885065	-4.410644054	1.0
13	-24.64799881	-15.72700024	26.82600021	12.78110313	-2.167885065	-4.410644054	1.0
14	-24.64799881	-15.72700024	26.82600021	12.78110313	-2.167885065	-4.410644054	1.0
[RightHandThumb2]
12	-32.29800034	-18.64699936	18.64699936	8.898967743	-20.1786232	-10.77729797	1.0
13	-32.29800034	-18.64699936	18.64699936	8.219708443	-20.62160683	-11.17027092	1.0
14	-32.29800034	-18.64699936	18.64699936	8.258472443	-20.62229919	-11.20214462	1.0
[RightHandThumb3]
12	-26.52600098	-15.31399918	15.31399918	-15.45444202	-4.921499252	-11.22215652	1.0
13	-26.52600098	-15.31399918	15.31399918	-15.42079449	-5.001130581	-11.19700432	1.0
14	-26.52600098	-15.31399918	15.31399918	-15.41837311	-5.006863117	-11.19519615	1.0
[RightHandThumb4]
12	-19.54599953	-11.28499985	11.28499985	0	0	0	1.0
13	-19.54599953	-11.28499985	11.28499985	0	0	0	1.0
14	-19.54599953	-11.28499985	11.28499985	0	0	0	1.0
[LeftUpLeg]
12	82.07800293	-67.51699829	-15.99599934	-25.55796432	4.962052345	-3.498860359	1.0
13	82.07800293	-67.51699829	-15.99599934	-18.66461563	4.999098301	-4.249942303	1.0
14	82.07800293	-67.51699829	-15.99599934	-11.76100159	6.050356865	-4.370379448	1.0
[LeftLeg]
12	0	-443.7049866	2.845999956	36.26410294	-4.505559444	-3.16287446	1.0
13	0	-443.7049866	2.845999956	31.71745491	-6.007994175	-1.689337134	1.0
14	0	-443.7049866	2.845999956	26.14390755	-7.204636574	-0.05554479361	1.0
[LeftFoot]
12	0	-444.2789917	-29.8219986	-9.94209671	0.6253587008	4.350257874	1.0
13	0	-444.2789917	-29.8219986	-12.11465549	0.3507041931	3.337088346	1.0
14	0	-444.2789917	-29.8219986	-13.89839935	-0.9661951065	2.432468176	1.0
[LeftToeBase]
12	0	-87.28699493	107.1060028	-7.286497116	-2.081112314e-07	-4.52205029e-09	1.0
13	0	-87.28699493	107.1060028	-7.075008392	-7.068489936e-07	-5.863065056e-08	1.0
14	0	-87.28699493	107.1060028	-6.853412151	-8.489940484e-08	3.520137781e-08	1.0
[RightUpLeg]
12	-82.07800293	-67.51699829	-15.99599934	-17.44034576	-11.64320087	-4.243134499	1.0
13	-82.07800293	-67.51699829	-15.99599934	-25.97406197	-11.75592899	-3.449325562	1.0
14	-82.07800293	-67.51699829	-15.99599934	-32.70061493	-11.1607008	-2.72048068	1.0
[RightLeg]
12	0	-443.7049866	2.861999989	73.38494873	0.9781855941	-4.036345005	1.0
13	0	-443.7049866	2.861999989	72.87838745	0.500377357	-0.7278577089	1.0
14	0	-443.7049866	2.861999989	65.57840729	-0.1261499375	-0.7284760475	1.0
[RightFoot]
12	0	-444.2770081	-29.83799934	4.803498268	-0.5973637104	7.206189156	1.0
13	0	-444.2770081	-29.83799934	-0.06389570236	-0.2479123026	6.529821873	1.0
14	0	-444.2770081	-29.83799934	-3.48535037	-0.05014079064	6.404087543	1.0
[RightToeBase]
12	0	-87.28699493	107.1060028	-11.39348412	-3.444371032e-06	-2.255968184e-06	1.0
13	0	-87.28699493	107.1060028	-8.960565567	-2.772161906e-06	-5.380680932e-07	1.0
14	0	-87.28699493	107.1060028	-7.731472969	-2.117417353e-06	-2.999679509e-07	1.0
[EndOfFile]
